<?xml version="1.0" standalone="no"?><!DOCTYPE svg PUBLIC "-//W3C//DTD SVG 1.1//EN" "http://www.w3.org/Graphics/SVG/1.1/DTD/svg11.dtd"><svg class="icon" width="16px" height="16.00px" viewBox="0 0 1024 1024" version="1.1" xmlns="http://www.w3.org/2000/svg"><path fill="#ff9800" d="M853.78427 188.132798l-92.127234 0 0 151.11265L260.657578 339.245448 260.657578 188.132798l-90.442872 0c-18.897396 0-34.218336 15.321964-34.218336 34.218336l0 702.222389c0 18.897396 15.32094 34.213219 34.218336 34.213219l683.569564 0c18.897396 0 34.218336-15.316847 34.218336-34.213219L888.002606 222.351134C888.002606 203.453738 872.681666 188.132798 853.78427 188.132798L853.78427 188.132798zM777.832438 481.110479 481.32128 844.146772c1.348718 4.502547-5.341658 5.178953-9.845229 1.50119l-215.733413-176.657442c-4.502547-3.676739-5.178953-10.373255-1.503237-14.875802l35.990702-44.062542c3.676739-4.50664 10.372232-5.178953 14.873756-1.503237l163.707502 135.485741 253.610068-310.512033c3.676739-6.277984 10.372232-6.950296 14.873756-3.273557l41.817408 34.155914C783.616164 468.083791 786.207176 471.52517 777.832438 481.110479L777.832438 481.110479zM777.832438 481.110479M640.350227 144.098909l0-27.77253c0-28.226878-22.881127-51.113121-51.114145-51.113121L434.513208 65.213257c-28.231995 0-51.113121 22.88522-51.113121 51.113121l0 27.77253-60.093657 0 0 137.807622 375.976 0L699.282431 144.098909 640.350227 144.098909 640.350227 144.098909zM512.125867 231.166917c-31.135114 0-56.378032-25.241894-56.378032-56.378032 0-31.137161 25.242917-56.379055 56.378032-56.379055 31.137161 0 56.379055 25.241894 56.379055 56.379055C568.505945 210.484875 543.263028 231.166917 512.125867 231.166917L512.125867 231.166917zM512.125867 231.166917" /></svg>